<?xml version="1.0" encoding="UTF-8"?>
<svg version="1.1" xmlns="http://www.w3.org/2000/svg" width="1284" height="588">
<path d="M0 0 C423.72 0 847.44 0 1284 0 C1284 194.04 1284 388.08 1284 588 C860.28 588 436.56 588 0 588 C0 393.96 0 199.92 0 0 Z " fill="#FEFEFE" transform="translate(0,0)"/>
<path d="M0 0 C10.38451433 8.8876474 18.9138712 18.07169536 26.25 29.625 C26.80300781 30.46675781 27.35601563 31.30851562 27.92578125 32.17578125 C34.20052174 42.08241288 38.19796165 52.5663374 41.0625 63.875 C41.2694751 64.6901709 41.4764502 65.5053418 41.68969727 66.34521484 C46.05071851 84.5494947 45.9055182 104.31515063 40.88720703 122.32226562 C40.20878291 124.77395005 39.58618089 127.23639328 38.96484375 129.703125 C32.03952051 156.34734294 18.69046218 180.68456403 2.25 202.625 C1.46496094 203.67945313 0.67992187 204.73390625 -0.12890625 205.8203125 C-4.94839297 212.23013478 -10.00240449 218.28046053 -15.46875 224.16015625 C-17.35016751 226.19298921 -19.15300766 228.25819149 -20.9375 230.375 C-29.08797074 239.74804135 -38.15373946 248.73819478 -47.75 256.625 C-48.55179688 257.29273438 -49.35359375 257.96046875 -50.1796875 258.6484375 C-53.02009603 260.99486194 -55.88068406 263.31401745 -58.75 265.625 C-59.27335937 266.04797363 -59.79671875 266.47094727 -60.3359375 266.90673828 C-84.79071563 286.61535882 -111.27578822 303.47853166 -138.75 318.625 C-139.68650391 319.14175293 -140.62300781 319.65850586 -141.58789062 320.19091797 C-174.84744046 338.49643796 -174.84744046 338.49643796 -181.75 336.625 C-184.13446569 335.58765795 -186.39121369 334.51564136 -188.6875 333.3125 C-189.36498291 332.96493652 -190.04246582 332.61737305 -190.74047852 332.25927734 C-192.24954808 331.48285862 -193.75652347 330.7023602 -195.26171875 329.91845703 C-197.93947737 328.52650597 -200.62564133 327.15164063 -203.3125 325.77734375 C-225.26367959 314.49915033 -246.72727058 302.09655604 -266.75 287.625 C-267.8225 286.86832031 -268.895 286.11164063 -270 285.33203125 C-283.13805195 276.05897057 -295.69189893 266.27020109 -307.75 255.625 C-308.49209717 254.97120361 -309.23419434 254.31740723 -309.9987793 253.64379883 C-316.59448668 247.77535238 -322.94129115 241.67380016 -329.1875 235.4375 C-329.94527237 234.68173676 -329.94527237 234.68173676 -330.71835327 233.91070557 C-338.37988244 226.24477958 -345.36738954 218.38868793 -351.75 209.625 C-352.99527232 208.05026981 -354.24059513 206.47556886 -355.49145508 204.90527344 C-384.43513605 168.27509407 -403.64875847 122.05434029 -398.44091797 74.82177734 C-397.64456367 69.61953947 -396.36266261 64.62989963 -394.75 59.625 C-394.53569336 58.94727539 -394.32138672 58.26955078 -394.10058594 57.57128906 C-389.17256227 42.41420899 -381.80749919 28.97823271 -371.75 16.625 C-371.1415625 15.87476563 -370.533125 15.12453125 -369.90625 14.3515625 C-365.91484573 9.61630562 -361.55698875 5.52188761 -356.75 1.625 C-355.88761719 0.92503906 -355.02523437 0.22507813 -354.13671875 -0.49609375 C-336.69364946 -14.11537789 -316.17522382 -24.46764634 -293.75 -25.375 C-292.73228516 -25.41737793 -291.71457031 -25.45975586 -290.66601562 -25.50341797 C-251.82586019 -26.84754167 -223.14066567 -16.7750013 -194.75 9.625 C-194.13253906 10.18832031 -193.51507812 10.75164062 -192.87890625 11.33203125 C-187.49096285 16.44622233 -182.77286867 22.38544859 -178.75 28.625 C-178.75 29.615 -178.75 30.605 -178.75 31.625 C-175.92562777 28.94154005 -173.70490011 26.24798437 -171.5625 23 C-167.77003256 17.48368373 -163.59352378 12.26136695 -158.75 7.625 C-158.09 7.625 -157.43 7.625 -156.75 7.625 C-156.42 6.635 -156.09 5.645 -155.75 4.625 C-112.60074903 -35.4564526 -45.58824542 -36.09069429 0 0 Z " fill="#EC1E79" transform="translate(817.75,130.375)"/>
<path d="M0 0 C2.36593721 1.92232398 2.9066961 2.85990803 3.2734375 5.8671875 C3.30695313 6.73601562 3.34046875 7.60484375 3.375 8.5 C3.42398438 9.36367187 3.47296875 10.22734375 3.5234375 11.1171875 C3 13.625 3 13.625 0.859375 15.796875 C-2.09527431 17.68591308 -4.81560835 18.85350314 -8.125 20 C-22.76586845 25.45314513 -32.95523674 32.22319008 -39.80859375 46.6328125 C-42.95233725 54.52824699 -43.15314732 60.98547996 -42.74609375 69.33007812 C-42.59622047 75.15309571 -43.2193987 78.13284066 -47 82.625 C-48 83.625 -48 83.625 -51.75 83.875 C-55.63337994 83.81247689 -57.9388853 83.16135218 -61 80.625 C-64.72224053 75.99930303 -64.50223834 71.48857386 -64.4375 65.8125 C-64.42505249 64.41559937 -64.42505249 64.41559937 -64.41235352 62.99047852 C-63.96113612 44.24649054 -57.29325638 29.9648177 -44 16.625 C-43.39800781 15.99980469 -42.79601562 15.37460938 -42.17578125 14.73046875 C-32.68487341 5.61013866 -13.27188099 -6.08294545 0 0 Z " fill="#FA6CB1" transform="translate(522,146.375)"/>
<path d="M0 0 C0.66 0.33 1.32 0.66 2 1 C-3.94 6.94 -9.88 12.88 -16 19 C-16.66 18.67 -17.32 18.34 -18 18 C-16.5484451 16.32742645 -15.08855591 14.66208242 -13.625 13 C-12.81289063 12.071875 -12.00078125 11.14375 -11.1640625 10.1875 C-10.44992187 9.465625 -9.73578125 8.74375 -9 8 C-8.34 8 -7.68 8 -7 8 C-6.67 7.01 -6.34 6.02 -6 5 C-4.12382302 3.15500602 -2.07262391 1.6316401 0 0 Z " fill="#EE418E" transform="translate(668,130)"/>
</svg>
